<svg width="44" height="44" viewBox="0 0 44 44" fill="none" xmlns="http://www.w3.org/2000/svg">
<path d="M11 14.6654V12.832C11 6.7569 15.9249 1.83203 22 1.83203C28.0751 1.83203 33 6.7569 33 12.832V14.6654H36.6667C37.6792 14.6654 38.5 15.4862 38.5 16.4987V38.4987C38.5 39.5112 37.6792 40.332 36.6667 40.332H7.33333C6.32082 40.332 5.5 39.5112 5.5 38.4987V16.4987C5.5 15.4862 6.32082 14.6654 7.33333 14.6654H11ZM34.8333 18.332H9.16667V36.6654H34.8333V18.332ZM20.1667 28.8414C19.0707 28.2075 18.3333 27.0226 18.3333 25.6654C18.3333 23.6403 19.9749 21.9987 22 21.9987C24.0251 21.9987 25.6667 23.6403 25.6667 25.6654C25.6667 27.0226 24.9293 28.2075 23.8333 28.8414V32.9987H20.1667V28.8414ZM14.6667 14.6654H29.3333V12.832C29.3333 8.78194 26.05 5.4987 22 5.4987C17.9499 5.4987 14.6667 8.78194 14.6667 12.832V14.6654Z" fill="white"/>
</svg>
